<?xml version="1.0" encoding="UTF-8" standalone="no"?>
<!-- Created with Inkscape (http://www.inkscape.org/) -->

<svg
   width="623.45367mm"
   height="65.14946mm"
   viewBox="0 0 623.45367 65.14946"
   version="1.1"
   id="svg5"
   xmlns:inkscape="http://www.inkscape.org/namespaces/inkscape"
   xmlns:sodipodi="http://sodipodi.sourceforge.net/DTD/sodipodi-0.dtd"
   xmlns="http://www.w3.org/2000/svg"
   xmlns:svg="http://www.w3.org/2000/svg">
  <sodipodi:namedview
     id="namedview7"
     pagecolor="#ffffff"
     bordercolor="#666666"
     borderopacity="1.0"
     inkscape:showpageshadow="2"
     inkscape:pageopacity="0.0"
     inkscape:pagecheckerboard="0"
     inkscape:deskcolor="#d1d1d1"
     inkscape:document-units="mm"
     showgrid="false" />
  <defs
     id="defs2">
    <clipPath
       clipPathUnits="userSpaceOnUse"
       id="clipPath37">
      <path
         d="M 0,2582.505 H 2615.736 V 0 H 0 Z"
         id="path35" />
    </clipPath>
    <clipPath
       clipPathUnits="userSpaceOnUse"
       id="clipPath1485">
      <path
         d="m 325.747,636.794 h 1941.285 v 538.465 H 325.747 Z"
         id="path1483" />
    </clipPath>
  </defs>
  <g
     inkscape:label="Layer 1"
     inkscape:groupmode="layer"
     id="layer1"
     transform="translate(350.86095,14.754731)">
    <g
       id="g3673"
       transform="matrix(0.3530446,0,0,-0.35277777,-501.90877,428.35475)">
      <g
         id="g31">
        <g
           id="g33"
           clip-path="url(#clipPath37)">
          <g
             id="g1167"
             transform="translate(595.9806,1084.627)">
            <path
               d="m 0,0 c -61.952,29.927 -49.813,85.456 -44.758,95.518 1.847,3.675 7.647,18.146 16.452,22.744 4.207,2.198 11.47,5.362 13.966,4.22 0,0 -9.198,-11.2 -7.309,-27.221 C -16.015,47.463 54.521,-10.013 27.62,-9.037 18.178,-8.695 1.686,-0.814 0,0"
               style="fill:#000000;fill-opacity:1;fill-rule:nonzero;stroke:none"
               id="path1169" />
          </g>
          <g
             id="g1175"
             transform="translate(542.63,1103.8467)">
            <path
               d="m 0,0 c -77.473,3.86 -89.28,67.24 -88.455,79.988 0.301,4.657 -0.039,22.339 7.081,31.038 3.402,4.157 9.551,10.675 12.644,10.586 0,0 -4.625,-15.769 4.377,-31.67 C -37.491,42.5 61.005,13.657 32.647,2.777 22.693,-1.042 2.107,-0.105 0,0"
               style="fill:#000000;fill-opacity:1;fill-rule:nonzero;stroke:none"
               id="path1177" />
          </g>
          <g
             id="g1179"
             transform="translate(574.089,1099.6772)">
            <path
               d="m 0,0 c 20.654,-0.351 -17.333,29.924 -17.016,65.275 0.094,10.571 3.563,15.816 0.583,31.275 -2.419,12.555 -7.329,22.706 -21.14,35.112 -6.847,6.15 -14.145,11.294 -19.326,14.726 6.63,-8.379 14.796,-20.534 17.616,-33.651 3.292,-15.319 -3.442,-19.242 -9.346,-37.256 C -57.18,49.399 -64.72,26.396 -31.302,9.746 -22.872,5.546 -8.618,0.146 0,0"
               style="fill:#000000;fill-opacity:1;fill-rule:nonzero;stroke:none"
               id="path1181" />
          </g>
          <g
             id="g1183"
             transform="translate(433.8497,1116.7451)">
            <path
               d="m 0,0 c 61.84,11.718 21.559,64.483 16.359,76.372 -1.762,4.03 -14.393,34.331 -16.898,33.918 0,0 -6.032,-28.485 -4.55,-42.907 4.422,-43.029 -9.05756,-71.3846293 9.1997811,-73.0669494 10.5391659,-0.9711299 -0.9647677,-0.3926548 0.7182323,-0.074655"
               style="fill:#000000;fill-opacity:1;fill-rule:nonzero;stroke:none"
               id="path1185"
               sodipodi:nodetypes="ccccsc" />
          </g>
          <g
             id="g1191"
             transform="translate(543.6661,1124.4531)">
            <path
               d="m 0,0 c 66.963,2.444 65.93,58.185 69.376,70.199 1.168,4.073 10.543,34.608 7.873,34.568 0,0 -25.809,-26.192 -34.57,-40.091 C 16.538,23.211 -51.67,12.784 -27.939,2.849 -19.609,-0.639 -1.822,-0.066 0,0"
               style="fill:#000000;fill-opacity:1;fill-rule:nonzero;stroke:none"
               id="path1193" />
          </g>
          <g
             id="g1203"
             transform="translate(941.5538,1119.3491)">
            <path
               d="m 0,0 c 78.187,3.402 90.103,59.269 89.271,70.506 -0.304,4.104 0.039,19.69 -7.147,27.359 -3.434,3.664 -9.64,9.409 -12.761,9.331 0,0 4.668,-13.9 -4.418,-27.916 C 37.837,37.462 -61.566,12.038 -32.948,2.447 -22.902,-0.919 -2.127,-0.093 0,0"
               style="fill:#000000;fill-opacity:1;fill-rule:nonzero;stroke:none"
               id="path1205" />
          </g>
          <g
             id="g1207"
             transform="translate(713.0421,1092.1064)">
            <path
               d="m 0,0 c -80.736,4.083 -93.041,71.13 -92.182,84.616 0.314,4.926 -0.04,23.631 7.38,32.833 3.545,4.398 9.953,11.293 13.177,11.198 0,0 -4.82,-16.68 4.562,-33.501 C -39.07,44.959 63.573,14.447 34.021,2.938 23.648,-1.103 2.196,-0.111 0,0"
               style="fill:#000000;fill-opacity:1;fill-rule:nonzero;stroke:none"
               id="path1209" />
          </g>
          <g
             id="g1211"
             transform="translate(1003.4025,1107.9829)">
            <path
               d="m 0,0 c -77.473,3.859 -89.28,67.24 -88.455,79.988 0.301,4.656 -0.039,22.338 7.081,31.038 3.402,4.157 9.551,10.675 12.644,10.586 0,0 -4.625,-15.769 4.377,-31.67 C -37.491,42.5 61.005,13.657 32.647,2.776 22.693,-1.042 2.107,-0.105 0,0"
               style="fill:#000000;fill-opacity:1;fill-rule:nonzero;stroke:none"
               id="path1213" />
          </g>
          <g
             id="g1215"
             transform="translate(1017.2657,1072.3032)">
            <path
               d="m 0,0 c -25.488,-5.811 16.256,31.798 9.741,63.835 -1.947,9.58 -7.146,13.424 -6.138,28.262 0.817,12.051 5.133,22.581 20.068,37.525 7.404,7.408 15.54,14.023 21.354,18.519 -6.75,-9.376 -14.747,-22.592 -15.962,-35.26 C 27.645,98.086 36.653,96.312 47.077,81.514 62.171,60.088 75.481,41.192 37.029,17.178 27.33,11.12 10.634,2.424 0,0"
               style="fill:#000000;fill-opacity:1;fill-rule:nonzero;stroke:none"
               id="path1217" />
          </g>
          <g
             id="g1219"
             transform="translate(716.8751,1128.1919)">
            <path
               d="m 0,0 c 24.782,-2.026 7.183,15.896 40.947,32.804 10.097,5.056 19.267,7.257 30.242,14.931 8.914,6.233 12.529,11.538 7.45,18.724 -2.518,3.562 -6.534,6.683 -9.592,8.793 C 69.197,70.642 67.649,64.084 58.691,57.546 48.229,49.911 36.338,48.637 12.148,40.538 -22.875,28.811 -53.763,18.469 -28.854,7.485 -22.571,4.715 -10.339,0.846 0,0"
               style="fill:#000000;fill-opacity:1;fill-rule:nonzero;stroke:none"
               id="path1221" />
          </g>
          <g
             id="g1223"
             transform="translate(832.9279,1117.1621)">
            <path
               d="m 0,0 c 76.091,8.716 68.645,64.737 63.956,75.784 -1.713,4.034 -6.735,19.459 -16.475,26.545 -4.653,3.386 -12.761,8.638 -15.819,8.346 0,0 9.395,-13.415 5.238,-27.887 C 24.5,39.609 -64.978,7.68 -33.398,0.163 -22.314,-2.476 -2.069,-0.237 0,0"
               style="fill:#000000;fill-opacity:1;fill-rule:nonzero;stroke:none"
               id="path1225" />
          </g>
          <g
             id="g1227"
             transform="translate(901.0724,1117.7905)">
            <path
               d="m 0,0 c 61.84,11.717 21.559,64.483 16.359,76.371 -1.762,4.03 -14.393,34.331 -16.898,33.919 0,0 -6.032,-28.485 -4.55,-42.908 C -0.667,24.354 -58.061,4.884 -28.529,-1.217 -18.164,-3.358 -1.683,-0.319 0,0"
               style="fill:#000000;fill-opacity:1;fill-rule:nonzero;stroke:none"
               id="path1229" />
          </g>
          <g
             id="g1231"
             transform="translate(720.0929,1141.4565)">
            <path
               d="m 0,0 c 46.055,12.714 12.271,43.953 7.592,51.308 -1.586,2.493 -13.041,21.289 -14.911,20.814 0,0 -2.779,-19.131 -0.754,-28.447 C -2.031,15.881 -44.235,-1.542 -21.51,-3.124 -13.532,-3.679 -1.253,-0.346 0,0"
               style="fill:#000000;fill-opacity:1;fill-rule:nonzero;stroke:none"
               id="path1233" />
          </g>
          <g
             id="g1235"
             transform="translate(792.1329,1121.6523)">
            <path
               d="m 0,0 c -27.655,0.955 -1.559,16.264 -31.531,36.642 -8.963,6.093 -18.04,9.309 -26.93,18.046 -7.219,7.095 -9.06,12.666 -0.739,19.038 4.125,3.158 9.701,5.712 13.843,7.398 C -47.327,76.67 -48.219,70.127 -41.07,62.73 -32.721,54.091 -20.332,51.455 2.714,40.749 36.082,25.247 65.51,11.577 34.208,3.859 26.312,1.913 11.537,-0.399 0,0"
               style="fill:#000000;fill-opacity:1;fill-rule:nonzero;stroke:none"
               id="path1237" />
          </g>
          <g
             id="g1239"
             transform="translate(823.6886,1106.2979)">
            <path
               d="m 0,0 c -26.174,4.18 13.783,20.936 3.621,50.166 -3.039,8.741 -8.898,13.818 -9.378,25.926 -0.389,9.834 3.054,17.146 17.196,24.391 7.01,3.591 14.873,6.256 20.515,7.966 C 25.834,102.972 18.803,94.712 18.839,84.501 18.881,72.576 28.527,67.883 41.012,51.745 59.088,28.378 75.028,7.771 37.121,1.267 27.56,-0.374 10.92,-1.744 0,0"
               style="fill:#000000;fill-opacity:1;fill-rule:nonzero;stroke:none"
               id="path1241" />
          </g>
          <g
             id="g1243"
             transform="translate(1008.9327,1117.4312)">
            <path
               d="m 0,0 c 63,2.087 61.945,51.955 65.17,62.698 1.093,3.642 9.868,30.945 7.356,30.913 0,0 -24.244,-23.394 -32.466,-35.814 C 15.526,20.741 -48.633,11.514 -26.29,2.59 -18.448,-0.542 -1.713,-0.057 0,0"
               style="fill:#000000;fill-opacity:1;fill-rule:nonzero;stroke:none"
               id="path1245" />
          </g>
          <g
             id="g1247"
             transform="translate(814.8546,1089.0957)">
            <path
               d="m 0,0 c -27.753,1.012 0.178,25.084 -27.824,56.045 -8.373,9.258 -17.17,14.071 -25.186,27.411 -6.51,10.834 -7.764,19.406 1.301,29.381 4.493,4.945 10.384,8.982 14.737,11.655 -2.463,-6.91 -4.063,-17.027 2.343,-28.327 C -27.147,82.967 -14.952,79.103 7.11,62.959 39.056,39.584 67.228,18.97 34.87,6.531 26.708,3.394 11.578,-0.422 0,0"
               style="fill:#000000;fill-opacity:1;fill-rule:nonzero;stroke:none"
               id="path1249" />
          </g>
          <g
             id="g1251"
             transform="translate(620.9347,1122.0381)">
            <path
               d="m 0,0 c 65.679,6.316 48.377,61.521 48.285,73.633 -0.03,4.106 0.348,34.926 -2.287,34.731 0,0 -17.941,-27.469 -22.569,-41.758 C 9.619,23.975 -54.962,9.672 -28.532,1.201 -19.255,-1.772 -1.786,-0.172 0,0"
               style="fill:#000000;fill-opacity:1;fill-rule:nonzero;stroke:none"
               id="path1253" />
          </g>
          <g
             id="g1255"
             transform="translate(739.7589,1103.6934)">
            <path
               d="m 0,0 c -61.11,3.346 -70.424,58.299 -69.773,69.352 0.238,4.037 -0.031,19.368 5.585,26.911 2.684,3.604 7.535,9.255 9.974,9.178 0,0 -3.648,-13.672 3.453,-27.459 C -29.572,36.849 48.12,11.84 25.752,2.407 17.9,-0.904 1.662,-0.091 0,0"
               style="fill:#000000;fill-opacity:1;fill-rule:nonzero;stroke:none"
               id="path1257" />
          </g>
          <g
             id="g1259"
             transform="translate(625.4503,1119.2427)">
            <path
               d="m 0,0 c -18.484,1.062 0.556,21.192 -17.574,47.559 -5.422,7.885 -11.203,12.017 -16.315,23.347 -4.152,9.202 -4.84,16.454 1.377,24.814 3.082,4.145 7.08,7.51 10.029,9.737 -1.762,-5.82 -3.005,-14.355 1.069,-23.951 C -16.655,70.299 -8.592,66.944 5.836,53.14 26.727,33.152 45.15,15.525 23.361,5.257 17.865,2.667 7.712,-0.443 0,0"
               style="fill:#000000;fill-opacity:1;fill-rule:nonzero;stroke:none"
               id="path1261" />
          </g>
          <g
             id="g1263"
             transform="translate(890.4484,1140.8496)">
            <path
               d="m 0,0 c -40.191,2.002 -46.316,34.883 -45.889,41.496 0.157,2.416 -0.02,11.589 3.673,16.102 1.766,2.157 4.955,5.538 6.56,5.492 0,0 -2.4,-8.181 2.271,-16.43 C -19.45,22.048 31.647,7.085 16.937,1.44 11.772,-0.541 1.093,-0.055 0,0"
               style="fill:#000000;fill-opacity:1;fill-rule:nonzero;stroke:none"
               id="path1265" />
          </g>
          <g
             id="g1267"
             transform="translate(668.4874,1115.0415)">
            <path
               d="m 0,0 c 24.834,1.825 -1.243,16.357 22.521,37.73 7.106,6.392 14.785,9.901 21.393,18.94 5.368,7.342 6.123,12.986 -2.435,19.114 -4.241,3.037 -9.696,5.423 -13.713,6.984 C 30.271,78.364 32.144,71.831 26.889,64.189 20.753,55.265 9.986,52.233 -9.094,40.774 -36.72,24.184 -61.083,9.553 -31.541,2.797 -24.089,1.092 -10.361,-0.762 0,0"
               style="fill:#000000;fill-opacity:1;fill-rule:nonzero;stroke:none"
               id="path1269" />
          </g>
          <g
             id="g1271"
             transform="translate(883.9952,1119.478)">
            <path
               d="m 0,0 c 66.964,2.445 65.93,58.185 69.376,70.199 1.169,4.073 10.544,34.608 7.874,34.568 0,0 -25.809,-26.192 -34.57,-40.09 C 16.539,23.211 -51.669,12.784 -27.938,2.849 -19.608,-0.638 -1.821,-0.066 0,0"
               style="fill:#000000;fill-opacity:1;fill-rule:nonzero;stroke:none"
               id="path1273" />
          </g>
          <g
             id="g1275"
             transform="translate(1048.757,1122.605)">
            <path
               d="m 0,0 c -77.474,2.926 -89.28,50.968 -88.456,60.631 0.302,3.529 -0.038,16.932 7.082,23.527 3.402,3.151 9.551,8.091 12.644,8.024 0,0 -4.625,-11.953 4.377,-24.006 C -37.491,32.215 61.005,10.352 32.647,2.105 22.693,-0.79 2.107,-0.08 0,0"
               style="fill:#000000;fill-opacity:1;fill-rule:nonzero;stroke:none"
               id="path1277" />
          </g>
          <g
             id="g1279"
             transform="translate(762.9796,1138.6108)">
            <path
               d="m 0,0 c 70.22,4.287 62.552,46.451 64.763,55.673 0.75,3.126 7.016,26.585 4.21,26.458 0,0 -24.083,-20.77 -31.668,-31.611 C 14.674,18.175 -55.914,7.799 -29.754,1.141 -20.571,-1.197 -1.91,-0.117 0,0"
               style="fill:#000000;fill-opacity:1;fill-rule:nonzero;stroke:none"
               id="path1281" />
          </g>
          <g
             id="g1283"
             transform="translate(1774.2042,1117.105)">
            <path
               d="m 0,0 c -81.288,3.402 -93.677,59.27 -92.812,70.506 0.317,4.104 -0.04,19.69 7.431,27.359 3.569,3.664 10.021,9.409 13.266,9.331 0,0 -4.853,-13.9 4.594,-27.916 C -39.338,37.462 64.008,12.038 34.254,2.448 23.811,-0.919 2.211,-0.092 0,0"
               style="fill:#000000;fill-opacity:1;fill-rule:nonzero;stroke:none"
               id="path1285" />
          </g>
          <g
             id="g1287"
             transform="translate(1663.3302,1106.3945)">
            <path
               d="m 0,0 c 83.938,4.083 96.73,71.13 95.837,84.616 -0.326,4.926 0.042,23.631 -7.672,32.834 -3.686,4.397 -10.349,11.292 -13.699,11.198 0,0 5.012,-16.681 -4.743,-33.502 C 40.62,44.959 -66.095,14.447 -35.371,2.938 -24.587,-1.103 -2.283,-0.111 0,0"
               style="fill:#000000;fill-opacity:1;fill-rule:nonzero;stroke:none"
               id="path1289" />
          </g>
          <g
             id="g1291"
             transform="translate(1696.088,1098.9282)">
            <path
               d="m 0,0 c 80.546,3.86 92.821,67.24 91.964,79.988 -0.313,4.657 0.04,22.338 -7.362,31.038 -3.538,4.157 -9.93,10.675 -13.146,10.586 0,0 4.81,-15.769 -4.551,-31.67 C 38.979,42.5 -63.424,13.657 -33.941,2.776 -23.593,-1.042 -2.19,-0.105 0,0"
               style="fill:#000000;fill-opacity:1;fill-rule:nonzero;stroke:none"
               id="path1293" />
          </g>
          <g
             id="g1295"
             transform="translate(1743.4152,1122.4277)">
            <path
               d="m 0,0 c 22.661,7.73 -32.683,20.798 -48.643,53.474 -4.772,9.771 -3.414,15.954 -13.789,29.027 -8.426,10.618 -18.458,18.052 -39.223,24.09 -10.295,2.993 -20.617,4.884 -27.844,6.024 11.087,-5.129 25.589,-13.138 34.71,-24.117 10.651,-12.824 5.127,-19.061 7.003,-37.952 2.717,-27.352 5.113,-51.474 49.194,-53.776 C -27.472,-3.811 -9.455,-3.225 0,0"
               style="fill:#000000;fill-opacity:1;fill-rule:nonzero;stroke:none"
               id="path1297" />
          </g>
          <g
             id="g1299"
             transform="translate(1936.3927,1120.7725)">
            <path
               d="m 0,0 c -25.819,1.826 1.292,16.357 -23.414,37.731 -7.389,6.391 -15.371,9.9 -22.242,18.939 -5.58,7.342 -6.365,12.986 2.531,19.114 4.41,3.037 10.081,5.423 14.258,6.984 -2.605,-4.404 -4.551,-10.937 0.912,-18.578 6.38,-8.924 17.572,-11.957 37.409,-23.415 C 38.176,24.185 63.506,9.554 32.791,2.797 25.044,1.093 10.771,-0.761 0,0"
               style="fill:#000000;fill-opacity:1;fill-rule:nonzero;stroke:none"
               id="path1301" />
          </g>
          <g
             id="g1303"
             transform="translate(1880.0294,1111.1987)">
            <path
               d="m 0,0 c -79.107,8.716 -71.366,64.737 -66.492,75.784 1.78,4.034 7.003,19.459 17.128,26.545 4.839,3.385 13.268,8.637 16.447,8.346 0,0 -9.768,-13.415 -5.446,-27.887 C -25.472,39.609 67.556,7.679 34.724,0.162 23.2,-2.476 2.152,-0.237 0,0"
               style="fill:#000000;fill-opacity:1;fill-rule:nonzero;stroke:none"
               id="path1305" />
          </g>
          <g
             id="g1307"
             transform="translate(1809.1837,1111.8267)">
            <path
               d="m 0,0 c -64.293,11.718 -22.415,64.483 -17.009,76.372 1.832,4.029 14.964,34.331 17.569,33.918 0,0 6.271,-28.485 4.73,-42.907 C 0.692,24.354 60.363,4.884 29.66,-1.216 18.884,-3.358 1.748,-0.319 0,0"
               style="fill:#000000;fill-opacity:1;fill-rule:nonzero;stroke:none"
               id="path1309" />
          </g>
          <g
             id="g1311"
             transform="translate(1997.34,1135.4932)">
            <path
               d="m 0,0 c -47.881,12.714 -12.758,43.953 -7.893,51.308 1.649,2.492 13.558,21.288 15.502,20.814 0,0 2.889,-19.131 0.784,-28.447 C 2.111,15.881 45.99,-1.542 22.362,-3.125 14.069,-3.68 1.303,-0.346 0,0"
               style="fill:#000000;fill-opacity:1;fill-rule:nonzero;stroke:none"
               id="path1313" />
          </g>
          <g
             id="g1315"
             transform="translate(1922.4435,1115.6885)">
            <path
               d="m 0,0 c 28.752,0.955 1.619,16.264 32.781,36.642 9.319,6.093 18.755,9.309 27.997,18.046 7.506,7.095 9.419,12.667 0.769,19.038 -4.288,3.158 -10.085,5.712 -14.392,7.398 C 49.203,76.67 50.13,70.127 42.698,62.73 34.019,54.092 21.138,51.455 -2.822,40.749 -37.514,25.248 -68.108,11.577 -35.565,3.859 -27.356,1.913 -11.996,-0.398 0,0"
               style="fill:#000000;fill-opacity:1;fill-rule:nonzero;stroke:none"
               id="path1317" />
          </g>
          <g
             id="g1319"
             transform="translate(1889.6359,1100.3345)">
            <path
               d="m 0,0 c 27.212,4.18 -14.33,20.935 -3.765,50.166 3.16,8.74 9.251,13.818 9.749,25.926 0.406,9.834 -3.174,17.146 -17.877,24.39 -7.289,3.592 -15.462,6.256 -21.329,7.967 6.364,-5.477 13.674,-13.737 13.636,-23.948 C -19.63,72.576 -29.659,67.883 -42.639,51.745 -61.431,28.378 -78.004,7.771 -38.594,1.267 -28.652,-0.374 -11.354,-1.744 0,0"
               style="fill:#000000;fill-opacity:1;fill-rule:nonzero;stroke:none"
               id="path1321" />
          </g>
          <g
             id="g1323"
             transform="translate(1695.0118,1119.5347)">
            <path
               d="m 0,0 c -69.619,2.444 -68.545,58.185 -72.128,70.199 -1.214,4.073 -10.961,34.608 -8.185,34.568 0,0 26.833,-26.192 35.942,-40.091 C -17.194,23.211 53.719,12.784 29.047,2.849 20.387,-0.639 1.894,-0.066 0,0"
               style="fill:#000000;fill-opacity:1;fill-rule:nonzero;stroke:none"
               id="path1325" />
          </g>
          <g
             id="g1327"
             transform="translate(1883.9269,1090.4639)">
            <path
               d="m 0,0 c 28.854,1.012 -0.185,25.084 28.928,56.045 8.705,9.258 17.851,14.071 26.184,27.411 6.768,10.834 8.073,19.406 -1.352,29.381 -4.672,4.945 -10.796,8.982 -15.322,11.655 2.56,-6.91 4.224,-17.027 -2.435,-28.327 C 28.225,82.966 15.545,79.103 -7.393,62.959 -40.604,39.584 -69.894,18.97 -36.253,6.531 -27.767,3.394 -12.037,-0.422 0,0"
               style="fill:#000000;fill-opacity:1;fill-rule:nonzero;stroke:none"
               id="path1329" />
          </g>
          <g
             id="g1331"
             transform="translate(2100.4307,1116.0747)">
            <path
               d="m 0,0 c -68.284,6.316 -50.296,61.521 -50.2,73.633 0.032,4.106 -0.362,34.926 2.378,34.731 0,0 18.652,-27.469 23.465,-41.758 C -10.001,23.975 57.142,9.672 29.664,1.201 20.019,-1.773 1.857,-0.172 0,0"
               style="fill:#000000;fill-opacity:1;fill-rule:nonzero;stroke:none"
               id="path1333" />
          </g>
          <g
             id="g1335"
             transform="translate(1976.8937,1097.7295)">
            <path
               d="m 0,0 c 63.534,3.347 73.217,58.299 72.541,69.352 -0.247,4.037 0.031,19.368 -5.808,26.911 -2.79,3.604 -7.833,9.255 -10.369,9.178 0,0 3.793,-13.672 -3.59,-27.459 C 30.746,36.849 -50.028,11.841 -26.772,2.407 -18.61,-0.904 -1.729,-0.091 0,0"
               style="fill:#000000;fill-opacity:1;fill-rule:nonzero;stroke:none"
               id="path1337" />
          </g>
          <g
             id="g1339"
             transform="translate(1928.8585,1111.0757)">
            <path
               d="m 0,0 c 19.218,1.062 -0.577,21.192 18.272,47.559 5.636,7.884 11.647,12.016 16.961,23.347 4.317,9.202 5.032,16.453 -1.432,24.814 -3.204,4.144 -7.36,7.51 -10.426,9.736 C 25.207,99.637 26.5,91.101 22.264,81.506 17.316,70.299 8.934,66.944 -6.067,53.14 -27.786,33.152 -46.94,15.525 -24.288,5.257 -18.573,2.667 -8.018,-0.443 0,0"
               style="fill:#000000;fill-opacity:1;fill-rule:nonzero;stroke:none"
               id="path1341" />
          </g>
          <g
             id="g1343"
             transform="translate(1812.2892,1138.4658)">
            <path
               d="m 0,0 c 41.786,2.002 48.154,34.883 47.709,41.496 -0.162,2.416 0.021,11.589 -3.819,16.102 -1.835,2.157 -5.152,5.538 -6.82,5.492 0,0 2.495,-8.181 -2.361,-16.43 C 20.222,22.048 -32.902,7.085 -17.607,1.44 -12.239,-0.541 -1.137,-0.054 0,0"
               style="fill:#000000;fill-opacity:1;fill-rule:nonzero;stroke:none"
               id="path1345" />
          </g>
          <g
             id="g1347"
             transform="translate(2050.4102,1111.4126)">
            <path
               d="m 0,0 c -26.151,1.834 1.288,16.357 -23.759,37.74 -7.489,6.394 -15.578,9.906 -22.548,18.948 -5.66,7.343 -6.461,12.988 2.541,19.112 4.462,3.036 10.203,5.42 14.431,6.98 -2.633,-4.404 -4.596,-10.936 0.945,-18.579 C -21.917,55.274 -10.578,52.238 9.524,40.773 38.633,24.172 64.303,9.533 33.205,2.786 25.361,1.084 10.909,-0.765 0,0"
               style="fill:#000000;fill-opacity:1;fill-rule:nonzero;stroke:none"
               id="path1349" />
          </g>
          <g
             id="g1351"
             transform="translate(1332.0587,1120.0029)">
            <path
               d="m 0,0 c -81.287,2.629 -93.676,45.799 -92.811,54.482 0.317,3.172 -0.041,15.216 7.43,21.142 3.57,2.831 10.022,7.271 13.267,7.21 0,0 -4.853,-10.741 4.593,-21.572 C -39.337,28.948 64.009,9.302 34.255,1.891 23.811,-0.71 2.212,-0.071 0,0"
               style="fill:#000000;fill-opacity:1;fill-rule:nonzero;stroke:none"
               id="path1353" />
          </g>
          <g
             id="g1355"
             transform="translate(1518.9181,1087.188)">
            <path
               d="m 0,0 c 83.938,4.083 96.73,71.13 95.838,84.616 -0.327,4.926 0.041,23.63 -7.673,32.833 -3.686,4.398 -10.348,11.293 -13.699,11.198 0,0 5.012,-16.68 -4.743,-33.502 C 40.62,44.959 -66.095,14.447 -35.371,2.937 -24.587,-1.103 -2.283,-0.111 0,0"
               style="fill:#000000;fill-opacity:1;fill-rule:nonzero;stroke:none"
               id="path1357" />
          </g>
          <g
             id="g1359"
             transform="translate(1217.0421,1103.0645)">
            <path
               d="m 0,0 c 80.546,3.859 92.82,67.24 91.964,79.988 -0.314,4.656 0.04,22.338 -7.362,31.038 -3.538,4.157 -9.93,10.675 -13.146,10.586 0,0 4.809,-15.769 -4.552,-31.671 C 38.978,42.5 -63.424,13.657 -33.942,2.776 -23.594,-1.042 -2.191,-0.105 0,0"
               style="fill:#000000;fill-opacity:1;fill-rule:nonzero;stroke:none"
               id="path1361" />
          </g>
          <g
             id="g1363"
             transform="translate(1109.087,1105.1206)">
            <path
               d="m 0,0 c 25.332,-3.598 8.798,20.834 45.048,42.038 10.84,6.34 20.473,8.925 32.449,18.709 9.727,7.945 13.916,14.855 9.322,24.578 -2.277,4.82 -6.135,9.11 -9.097,12.023 C 77.47,91.223 75.297,82.576 65.498,74.227 54.054,64.476 41.7,63.221 16.085,53.358 -21.005,39.077 -53.714,26.482 -29.042,10.992 -22.819,7.084 -10.568,1.5 0,0"
               style="fill:#000000;fill-opacity:1;fill-rule:nonzero;stroke:none"
               id="path1365" />
          </g>
          <g
             id="g1367"
             transform="translate(1514.9327,1123.2734)">
            <path
               d="m 0,0 c -25.765,-2.026 -7.468,15.896 -42.571,32.804 -10.497,5.056 -20.031,7.257 -31.441,14.931 -9.267,6.233 -13.026,11.538 -7.746,18.724 2.618,3.562 6.793,6.683 9.973,8.793 -0.156,-4.61 1.453,-11.168 10.766,-17.706 10.878,-7.635 23.241,-8.909 48.389,-17.008 C 23.783,28.811 55.896,18.469 29.999,7.485 23.467,4.715 10.749,0.846 0,0"
               style="fill:#000000;fill-opacity:1;fill-rule:nonzero;stroke:none"
               id="path1369" />
          </g>
          <g
             id="g1371"
             transform="translate(1394.2775,1112.2437)">
            <path
               d="m 0,0 c -79.107,8.716 -71.366,64.737 -66.492,75.784 1.78,4.034 7.003,19.459 17.128,26.545 4.838,3.385 13.267,8.637 16.447,8.346 0,0 -9.768,-13.415 -5.446,-27.887 C -25.472,39.609 67.555,7.68 34.724,0.163 23.199,-2.476 2.151,-0.237 0,0"
               style="fill:#000000;fill-opacity:1;fill-rule:nonzero;stroke:none"
               id="path1373" />
          </g>
          <g
             id="g1375"
             transform="translate(1323.4308,1112.8716)">
            <path
               d="m 0,0 c -64.293,11.718 -22.414,64.483 -17.008,76.372 1.832,4.03 14.964,34.331 17.569,33.918 0,0 6.271,-28.485 4.73,-42.907 C 0.693,24.354 60.363,4.885 29.661,-1.216 18.884,-3.357 1.749,-0.318 0,0"
               style="fill:#000000;fill-opacity:1;fill-rule:nonzero;stroke:none"
               id="path1377" />
          </g>
          <g
             id="g1379"
             transform="translate(1511.588,1136.5381)">
            <path
               d="m 0,0 c -47.881,12.714 -12.758,43.953 -7.894,51.308 1.65,2.492 13.559,21.289 15.503,20.814 0,0 2.889,-19.131 0.784,-28.447 C 2.111,15.881 45.989,-1.542 22.362,-3.124 14.069,-3.679 1.303,-0.346 0,0"
               style="fill:#000000;fill-opacity:1;fill-rule:nonzero;stroke:none"
               id="path1381" />
          </g>
          <g
             id="g1383"
             transform="translate(1436.6906,1116.7334)">
            <path
               d="m 0,0 c 28.752,0.956 1.62,16.264 32.782,36.642 9.319,6.093 18.755,9.309 27.997,18.046 7.506,7.095 9.419,12.667 0.769,19.038 C 57.26,76.884 51.463,79.438 47.156,81.125 49.204,76.67 50.131,70.127 42.698,62.73 34.019,54.092 21.138,51.455 -2.822,40.749 -37.514,25.248 -68.107,11.577 -35.564,3.859 -27.355,1.913 -11.995,-0.398 0,0"
               style="fill:#000000;fill-opacity:1;fill-rule:nonzero;stroke:none"
               id="path1385" />
          </g>
          <g
             id="g1387"
             transform="translate(1403.8829,1101.3794)">
            <path
               d="m 0,0 c 27.213,4.18 -14.329,20.936 -3.764,50.166 3.16,8.74 9.251,13.818 9.749,25.926 0.405,9.834 -3.174,17.146 -17.878,24.391 -7.288,3.591 -15.461,6.256 -21.328,7.966 6.364,-5.477 13.673,-13.737 13.636,-23.948 C -19.629,72.576 -29.658,67.883 -42.638,51.745 -61.431,28.378 -78.004,7.771 -38.593,1.267 -28.651,-0.374 -11.353,-1.744 0,0"
               style="fill:#000000;fill-opacity:1;fill-rule:nonzero;stroke:none"
               id="path1389" />
          </g>
          <g
             id="g1391"
             transform="translate(1132.4943,1118.6182)">
            <path
               d="m 0,0 c -62.511,16.883 -22.109,68.091 -16.921,79.93 1.759,4.013 14.356,34.237 16.888,33.617 0,0 6.24,-29.806 4.819,-44.545 C 0.546,25.031 58.607,0.51 28.817,-3.474 18.36,-4.872 1.701,-0.459 0,0"
               style="fill:#000000;fill-opacity:1;fill-rule:nonzero;stroke:none"
               id="path1393" />
          </g>
          <g
             id="g1395"
             transform="translate(1413.0685,1084.1772)">
            <path
               d="m 0,0 c 28.854,1.012 -0.186,25.084 28.927,56.045 8.705,9.258 17.851,14.071 26.184,27.411 6.768,10.834 8.073,19.406 -1.351,29.381 -4.673,4.945 -10.797,8.981 -15.322,11.655 2.559,-6.91 4.224,-17.027 -2.436,-28.327 C 28.224,82.966 15.544,79.103 -7.394,62.959 -40.604,39.584 -69.895,18.97 -36.254,6.531 -27.768,3.394 -12.038,-0.422 0,0"
               style="fill:#000000;fill-opacity:1;fill-rule:nonzero;stroke:none"
               id="path1397" />
          </g>
          <g
             id="g1399"
             transform="translate(1614.6779,1117.1196)">
            <path
               d="m 0,0 c -68.283,6.316 -50.295,61.521 -50.2,73.633 0.032,4.106 -0.361,34.926 2.379,34.731 0,0 18.652,-27.469 23.464,-41.758 C -10,23.975 57.143,9.672 29.664,1.201 20.02,-1.773 1.857,-0.172 0,0"
               style="fill:#000000;fill-opacity:1;fill-rule:nonzero;stroke:none"
               id="path1401" />
          </g>
          <g
             id="g1403"
             transform="translate(1491.1417,1098.7744)">
            <path
               d="m 0,0 c 63.534,3.347 73.217,58.299 72.54,69.352 -0.247,4.037 0.032,19.368 -5.807,26.911 -2.791,3.604 -7.833,9.255 -10.369,9.178 0,0 3.793,-13.672 -3.591,-27.459 C 30.745,36.849 -50.028,11.841 -26.773,2.408 -18.61,-0.904 -1.729,-0.091 0,0"
               style="fill:#000000;fill-opacity:1;fill-rule:nonzero;stroke:none"
               id="path1405" />
          </g>
          <g
             id="g1407"
             transform="translate(1611.8722,1112.1206)">
            <path
               d="m 0,0 c 19.219,1.062 -0.576,21.192 18.272,47.559 5.637,7.884 11.647,12.016 16.961,23.347 4.317,9.202 5.032,16.453 -1.431,24.814 -3.205,4.144 -7.361,7.51 -10.426,9.737 C 25.207,99.637 26.5,91.102 22.264,81.506 17.317,70.299 8.934,66.944 -6.067,53.14 -27.786,33.152 -46.94,15.525 -24.288,5.257 -18.573,2.667 -8.018,-0.443 0,0"
               style="fill:#000000;fill-opacity:1;fill-rule:nonzero;stroke:none"
               id="path1409" />
          </g>
          <g
             id="g1411"
             transform="translate(1334.4757,1135.9312)">
            <path
               d="m 0,0 c 41.786,2.002 48.154,34.883 47.709,41.496 -0.162,2.416 0.021,11.588 -3.819,16.102 -1.835,2.156 -5.152,5.538 -6.82,5.492 0,0 2.495,-8.181 -2.361,-16.43 C 20.222,22.048 -32.902,7.085 -17.607,1.44 -12.239,-0.541 -1.137,-0.055 0,0"
               style="fill:#000000;fill-opacity:1;fill-rule:nonzero;stroke:none"
               id="path1413" />
          </g>
          <g
             id="g1415"
             transform="translate(1565.2404,1110.123)">
            <path
               d="m 0,0 c -25.819,1.825 1.291,16.357 -23.415,37.73 -7.388,6.392 -15.37,9.901 -22.241,18.94 -5.581,7.342 -6.365,12.986 2.53,19.113 4.41,3.038 10.081,5.424 14.259,6.985 -2.606,-4.405 -4.552,-10.937 0.911,-18.579 6.38,-8.924 17.572,-11.956 37.409,-23.415 C 38.176,24.184 63.505,9.553 32.791,2.797 25.043,1.092 10.771,-0.762 0,0"
               style="fill:#000000;fill-opacity:1;fill-rule:nonzero;stroke:none"
               id="path1417" />
          </g>
          <g
             id="g1419"
             transform="translate(1348.2921,1118.2793)">
            <path
               d="m 0,0 c -69.619,2.445 -68.544,58.185 -72.128,70.199 -1.214,4.073 -10.961,34.608 -8.185,34.568 0,0 26.833,-26.192 35.942,-40.09 C -17.194,23.211 53.719,12.784 29.047,2.849 20.387,-0.639 1.894,-0.066 0,0"
               style="fill:#000000;fill-opacity:1;fill-rule:nonzero;stroke:none"
               id="path1421" />
          </g>
          <g
             id="g1423"
             transform="translate(1083.0822,1133.4775)">
            <path
               d="m 0,0 c 80.545,2.926 92.82,50.968 91.964,60.63 -0.314,3.53 0.04,16.933 -7.362,23.527 -3.538,3.151 -9.93,8.092 -13.146,8.024 0,0 4.809,-11.952 -4.552,-24.006 C 38.978,32.215 -63.424,10.352 -33.942,2.104 -23.594,-0.79 -2.191,-0.08 0,0"
               style="fill:#000000;fill-opacity:1;fill-rule:nonzero;stroke:none"
               id="path1425" />
          </g>
          <g
             id="g1427"
             transform="translate(1467.0001,1133.6924)">
            <path
               d="m 0,0 c -73.005,4.287 -65.033,46.451 -67.331,55.673 -0.779,3.126 -7.295,26.585 -4.378,26.458 0,0 25.039,-20.77 32.925,-31.611 C -15.256,18.175 58.131,7.799 30.934,1.141 21.388,-1.197 1.985,-0.117 0,0"
               style="fill:#000000;fill-opacity:1;fill-rule:nonzero;stroke:none"
               id="path1429" />
          </g>
          <g
             id="g1431"
             transform="translate(1131.1105,1085.4648)">
            <path
               d="m 0,0 c -77.397,24.736 -64.431,80.534 -58.563,90.868 2.143,3.774 8.77,18.52 19.454,23.749 5.105,2.498 13.939,6.189 17.055,5.256 0,0 -10.93,-11.78 -8.03,-27.458 C -21.431,45.638 67.53,-5.644 34.353,-6.775 22.706,-7.172 2.105,-0.673 0,0"
               style="fill:#000000;fill-opacity:1;fill-rule:nonzero;stroke:none"
               id="path1433" />
          </g>
          <g
             id="g1435"
             transform="translate(1219.7404,1133.6284)">
            <path
               d="m 0,0 c -64.293,9.054 -22.414,49.828 -17.009,59.015 1.833,3.114 14.964,26.528 17.57,26.21 0,0 6.27,-22.012 4.729,-33.156 C 0.693,18.819 60.363,3.774 29.66,-0.94 18.884,-2.595 1.749,-0.247 0,0"
               style="fill:#000000;fill-opacity:1;fill-rule:nonzero;stroke:none"
               id="path1437" />
          </g>
          <g
             id="g1439"
             transform="translate(1156.1876,1118.1675)">
            <path
               d="m 0,0 c 80.546,2.982 92.821,51.958 91.964,61.81 -0.314,3.598 0.04,17.261 -7.362,23.983 -3.538,3.213 -9.93,8.249 -13.146,8.181 0,0 4.809,-12.185 -4.552,-24.473 C 38.978,32.841 -63.424,10.553 -33.942,2.146 -23.594,-0.806 -2.191,-0.082 0,0"
               style="fill:#000000;fill-opacity:1;fill-rule:nonzero;stroke:none"
               id="path1441" />
          </g>
          <g
             id="g1443"
             transform="translate(2042.8478,1106.6294)">
            <path
               d="m 0,0 c -23.122,-0.49 22.032,30.583 24.816,66.577 0.833,10.764 -2.578,16.083 2.124,31.843 3.82,12.801 10.21,23.169 26.752,35.89 8.199,6.306 16.815,11.591 22.912,15.119 C 68.448,140.855 58.239,128.425 53.923,115.05 48.883,99.43 56.061,95.479 61.064,77.173 68.307,50.668 74.694,27.294 35.857,10.125 26.06,5.794 9.646,0.204 0,0"
               style="fill:#000000;fill-opacity:1;fill-rule:nonzero;stroke:none"
               id="path1445" />
          </g>
          <g
             id="g1447"
             transform="translate(2065.7168,1122.6694)">
            <path
               d="m 0,0 c 66.963,2.445 65.93,58.185 69.376,70.199 1.169,4.073 10.543,34.608 7.874,34.568 0,0 -25.81,-26.192 -34.571,-40.091 C 16.538,23.211 -51.67,12.784 -27.938,2.849 -19.609,-0.639 -1.821,-0.066 0,0"
               style="fill:#000000;fill-opacity:1;fill-rule:nonzero;stroke:none"
               id="path1449" />
          </g>
          <g
             id="g1451"
             transform="translate(2098.208,1123.4961)">
            <path
               d="m 0,0 c -77.474,2.926 -89.28,50.968 -88.456,60.631 0.302,3.529 -0.038,16.932 7.082,23.526 3.402,3.152 9.551,8.092 12.644,8.024 0,0 -4.625,-11.952 4.378,-24.005 C -37.491,32.215 61.004,10.352 32.646,2.104 22.693,-0.79 2.107,-0.08 0,0"
               style="fill:#000000;fill-opacity:1;fill-rule:nonzero;stroke:none"
               id="path1453" />
          </g>
          <g
             id="g1455"
             transform="translate(2182.4395,1117.2476)">
            <path
               d="m 0,0 c -62.512,16.883 -35.89,55.324 -9.311,73.129 3.64,2.438 6.9977668,13.066806 13.0137668,31.84881 0,0 6.9592832,-15.352387 5.4200088,-33.682875 C -14.750224,34.125935 16.865642,61.608386 11.169642,22.604386 9.6446424,12.164386 1.7,-0.459 0,0"
               style="fill:#000000;fill-opacity:1;fill-rule:nonzero;stroke:none"
               id="path1457"
               sodipodi:nodetypes="csccsc" />
          </g>
          <g
             id="g1463"
             transform="translate(2168.7559,1100.1069)">
            <path
               d="m 0,0 c -59.702,29.575 -41.234,75.194 -34.984,83.253 2.283,2.943 9.776,14.639 19.238,17.849 4.521,1.534 12.255,3.655 14.667,2.517 0,0 -10.588,-8.71 -10.434,-22.264 C -11.054,40.916 18.297,31.834 13.794,4.816 12.211,-4.678 1.624,-0.805 0,0"
               style="fill:#000000;fill-opacity:1;fill-rule:nonzero;stroke:none"
               id="path1465" />
          </g>
          <g
             id="g1467"
             transform="translate(467.8126,1107.8066)">
            <path
               d="m 0,0 c 45.601,18.104 29.885,61.996 29.031,72.343 -0.289,3.507 -2.031,29.952 -3.864,29.276 0,0 -10.779,-26.974 -13.092,-40.096 C 5.177,22.375 -39.135,-2.351 -20.067,-4.489 -13.375,-5.24 -1.241,-0.492 0,0"
               style="fill:#000000;fill-opacity:1;fill-rule:nonzero;stroke:none"
               id="path1469" />
          </g>
          <g
             id="g1471"
             transform="translate(540.173,1133.0654)">
            <path
               d="m 0,0 c -40.191,2.002 -46.316,34.883 -45.889,41.497 0.157,2.415 -0.02,11.588 3.674,16.101 1.765,2.157 4.955,5.538 6.56,5.492 0,0 -2.4,-8.18 2.27,-16.43 C -19.449,22.048 31.648,7.085 16.937,1.44 11.773,-0.541 1.094,-0.054 0,0"
               style="fill:#000000;fill-opacity:1;fill-rule:nonzero;stroke:none"
               id="path1473" />
          </g>
          <g
             id="g1475"
             transform="translate(511.5313,1111.0273)">
            <path
               d="m 0,0 c 12.265,1.359 -1.235,20.637 9.76,46.643 3.288,7.776 6.969,11.904 9.909,23.032 2.389,9.038 2.551,16.115 -1.931,24.151 -2.221,3.984 -5.02,7.193 -7.075,9.31 C 12.074,97.497 13.25,89.203 10.93,79.783 8.219,68.782 2.986,65.371 -6.057,51.669 -19.151,31.83 -30.699,14.333 -15.771,4.712 -12.005,2.285 -5.117,-0.567 0,0"
               style="fill:#000000;fill-opacity:1;fill-rule:nonzero;stroke:none"
               id="path1477" />
          </g>
        </g>
      </g>
      <g
         id="g1479"
         transform="matrix(0.97395367,0,0,1.0000566,53.050562,-0.06292818)">
        <g
           id="g1481"
           clip-path="url(#clipPath1485)"
           transform="matrix(0.99999332,0,0,1.0658972,0.00860695,-75.97495)">
          <rect
             style="fill:#000000;stroke:none;stroke-width:0.375"
             id="rect1973"
             width="1814.4116"
             height="75.823364"
             x="383.98459"
             y="-1152.2499"
             transform="scale(1,-1)" />
        </g>
      </g>
    </g>
  </g>
</svg>
