<?xml version="1.0" standalone="no"?>
<!DOCTYPE svg PUBLIC "-//W3C//DTD SVG 20010904//EN"
 "http://www.w3.org/TR/2001/REC-SVG-20010904/DTD/svg10.dtd">
<svg version="1.0" xmlns="http://www.w3.org/2000/svg"
 width="638.000000pt" height="638.000000pt" viewBox="0 0 638.000000 638.000000"
 preserveAspectRatio="xMidYMid meet">
<metadata>
Created by potrace 1.14, written by Peter Selinger 2001-2017
</metadata>
<g transform="translate(0.000000,638.000000) scale(0.100000,-0.100000)"
fill="#000000" stroke="none">
<path d="M2970 6347 c-3 -3 -39 -7 -80 -10 -100 -8 -216 -26 -397 -61 -268
-53 -699 -226 -931 -373 -29 -18 -54 -33 -57 -33 -10 0 -219 -150 -305 -218
-157 -126 -329 -296 -443 -436 -18 -21 -38 -45 -46 -53 -8 -8 -48 -60 -88
-116 -219 -299 -381 -633 -487 -1005 -39 -133 -37 -126 -66 -287 -40 -227 -45
-294 -45 -575 0 -195 3 -257 19 -400 6 -47 28 -175 36 -210 5 -19 11 -46 13
-60 22 -125 111 -400 186 -575 102 -237 266 -508 436 -720 75 -93 309 -337
400 -416 248 -215 589 -421 895 -542 187 -74 428 -146 541 -162 24 -3 60 -10
79 -15 19 -5 60 -12 90 -15 30 -4 57 -8 60 -10 30 -18 541 -27 699 -12 1004
92 1906 658 2429 1523 209 347 372 798 417 1161 4 26 8 59 11 73 25 158 25
647 -1 780 -2 14 -7 44 -9 65 -33 283 -146 645 -296 945 -55 112 -191 346
-222 385 -4 6 -38 51 -75 100 -257 349 -626 672 -998 875 -385 211 -753 329
-1205 386 -56 7 -554 17 -560 11z m481 -381 c24 -3 71 -8 104 -12 52 -5 130
-18 240 -39 425 -82 895 -310 1240 -599 344 -290 601 -626 786 -1031 103 -227
194 -547 224 -792 3 -21 8 -58 11 -83 3 -25 7 -144 9 -265 2 -169 -2 -254 -16
-365 -73 -561 -279 -1037 -644 -1486 -54 -66 -299 -312 -354 -355 -24 -19 -51
-41 -60 -49 -34 -32 -220 -160 -316 -217 -114 -68 -213 -119 -306 -158 -35
-15 -82 -35 -104 -45 -163 -74 -525 -163 -750 -185 -33 -3 -78 -8 -100 -10
-54 -6 -380 -6 -430 0 -22 2 -65 7 -95 10 -127 13 -225 29 -340 57 -62 14
-250 68 -275 77 -11 5 -69 27 -130 51 -104 40 -305 138 -405 197 -310 182
-614 453 -836 748 -163 218 -287 445 -400 740 -4 11 -8 22 -9 25 0 3 -11 34
-23 70 -47 141 -95 352 -106 470 -6 64 -1 47 32 -130 20 -101 46 -208 59 -240
3 -8 6 -18 5 -22 -1 -4 11 -41 27 -83 16 -41 27 -75 24 -75 -3 0 0 -6 6 -13 6
-8 8 -17 4 -20 -3 -4 -1 -7 6 -7 8 0 11 -7 7 -15 -3 -8 -2 -15 3 -15 9 0 26
-48 23 -62 -1 -5 3 -8 8 -8 6 0 10 -6 10 -12 0 -17 111 -242 122 -246 4 -2 8
-8 8 -13 0 -11 61 -112 73 -120 5 -3 8 -10 8 -15 0 -5 7 -18 17 -29 9 -11 23
-33 31 -48 8 -15 18 -27 23 -27 4 0 8 -5 8 -11 0 -8 73 -105 132 -174 9 -11
26 -31 38 -45 52 -62 256 -260 268 -260 7 0 10 -5 7 -10 -3 -5 -2 -10 3 -10 6
0 24 -12 41 -27 42 -38 49 -43 111 -89 95 -70 190 -134 197 -134 3 0 14 -6 22
-14 9 -7 36 -24 61 -37 25 -13 47 -26 50 -29 10 -11 245 -124 253 -122 4 1 15
-5 23 -13 9 -8 20 -13 25 -10 5 4 9 1 9 -5 0 -7 6 -10 12 -8 7 3 24 -1 37 -8
14 -7 29 -10 34 -7 6 3 7 1 3 -5 -4 -7 -1 -12 7 -12 8 0 53 -13 100 -29 48
-16 87 -27 87 -25 0 3 8 0 18 -5 10 -5 69 -21 132 -35 63 -13 138 -30 165 -37
61 -15 845 -23 920 -9 28 5 68 11 90 15 22 3 48 8 57 11 10 3 30 7 45 10 16 3
44 9 63 14 19 5 37 9 40 10 7 0 113 30 130 37 19 8 34 12 48 14 4 0 23 7 42
15 19 8 36 15 37 15 2 0 19 7 40 15 20 9 46 18 56 20 11 2 30 10 44 19 13 9
28 13 32 10 5 -3 11 0 13 5 2 6 10 12 18 13 15 2 160 75 230 114 19 11 50 29
69 39 19 11 40 23 45 27 33 24 158 107 162 107 2 0 13 8 23 17 33 30 50 44 53
41 2 -1 15 9 30 22 14 14 45 41 69 60 116 96 342 335 422 447 23 32 45 60 49
61 5 2 6 8 2 13 -3 5 -1 9 4 9 10 0 78 98 80 114 0 5 4 12 9 15 4 3 14 17 22
31 8 14 37 63 64 110 27 47 48 87 48 90 -2 8 33 75 42 78 4 2 7 10 7 18 0 8 9
34 19 58 11 23 21 48 23 56 2 8 6 17 10 20 4 3 9 15 11 25 2 11 10 34 17 50 7
17 15 39 17 49 2 11 8 25 13 31 5 7 7 14 4 18 -3 3 0 15 6 27 6 12 14 33 16
48 3 14 8 30 11 36 4 6 8 21 9 34 2 14 6 32 10 41 7 18 12 40 17 87 2 16 6 35
10 40 3 6 8 28 11 50 3 21 10 71 15 109 24 164 8 706 -25 855 -3 14 -8 38 -10
54 -2 15 -6 36 -9 46 -6 19 -11 42 -20 94 -3 16 -10 37 -16 48 -5 10 -7 23 -4
28 3 5 1 11 -5 15 -6 4 -8 11 -5 16 4 5 2 9 -4 9 -6 0 -8 6 -5 14 3 8 1 17 -5
21 -6 3 -11 17 -11 31 0 13 -4 32 -9 42 -12 22 -25 54 -26 67 0 6 -6 20 -13
31 -6 12 -8 24 -5 28 3 3 1 6 -5 6 -7 0 -11 3 -10 8 2 13 -60 155 -106 242
-16 30 -36 69 -44 85 -8 17 -35 60 -59 97 -23 37 -43 70 -43 73 0 4 -6 13 -12
20 -30 33 -38 45 -38 54 0 6 -6 14 -12 18 -7 4 -30 33 -51 64 -20 31 -51 69
-67 85 -16 16 -30 32 -30 36 0 4 -21 29 -46 55 -158 164 -197 203 -203 203 -4
0 -13 8 -22 18 -8 9 -36 35 -63 57 -26 22 -53 45 -59 50 -49 43 -282 202 -337
230 -19 10 -38 23 -42 29 -5 6 -8 7 -8 1 0 -7 -3 -7 -8 0 -10 14 -170 95 -187
95 -8 0 -15 5 -15 10 0 6 -9 10 -20 10 -11 0 -20 4 -20 10 0 5 -3 9 -7 8 -10
-3 -104 32 -120 45 -7 5 -13 6 -13 2 0 -4 -6 -2 -13 4 -8 6 -17 8 -20 4 -4 -3
-7 0 -7 7 0 7 -3 11 -6 8 -3 -4 -20 0 -39 7 -18 8 -35 11 -39 8 -3 -4 -6 -1
-6 6 0 8 -7 11 -15 7 -8 -3 -15 -1 -15 5 0 6 -6 9 -14 6 -7 -3 -18 -1 -23 4
-5 5 -24 11 -41 12 -18 1 -32 5 -32 8 0 3 -30 12 -67 19 -38 8 -70 15 -73 15
-25 6 -81 17 -105 20 -16 2 -30 4 -30 5 0 5 -112 20 -225 30 -96 9 -479 5
-555 -5 -55 -8 -258 -42 -290 -49 -11 -3 -33 -7 -50 -10 -16 -3 -60 -14 -98
-25 -37 -11 -71 -21 -75 -22 -19 -5 -39 -11 -61 -20 -21 -9 -41 -5 -30 5 4 4
162 52 199 61 126 29 204 45 231 49 19 2 50 7 69 10 81 13 110 17 200 22 52 4
96 8 98 9 5 4 329 -3 373 -9z m-1181 -154 c0 -9 -109 -47 -122 -44 -5 1 -8 -2
-8 -8 0 -5 -3 -9 -7 -8 -5 1 -24 -5 -44 -14 -20 -9 -47 -19 -60 -23 -13 -4
-32 -14 -41 -23 -10 -8 -18 -12 -18 -9 0 12 -267 -136 -365 -203 -53 -36 -65
-42 -65 -36 0 8 167 116 179 116 6 0 11 4 11 8 0 11 255 142 355 182 44 18 94
38 110 45 62 26 75 29 75 17z m-740 -379 c0 -5 -17 -19 -37 -33 -20 -14 -41
-29 -47 -35 -6 -5 -45 -37 -86 -70 -41 -33 -110 -94 -152 -136 -43 -42 -78
-73 -78 -69 0 16 191 189 325 294 76 60 75 59 75 49z m-449 -402 c-22 -26 -48
-54 -58 -62 -10 -8 7 14 36 49 30 34 56 62 58 62 3 0 -13 -22 -36 -49z m-71
-84 c0 -2 -12 -14 -27 -28 l-28 -24 24 28 c23 25 31 32 31 24z m-62 -77 c-7
-10 -14 -17 -17 -15 -4 4 18 35 25 35 2 0 -1 -9 -8 -20z m-31 -42 c-3 -8 -6
-5 -6 6 -1 11 2 17 5 13 3 -3 4 -12 1 -19z m-43 -53 c-9 -14 -18 -25 -21 -25
-5 0 5 18 20 38 17 22 18 13 1 -13z m-78 -113 c-17 -16 -18 -16 -5 5 7 12 15
20 18 17 3 -2 -3 -12 -13 -22z m-28 -47 c-6 -14 -13 -23 -15 -21 -5 5 15 46
22 46 3 0 -1 -11 -7 -25z m-77 -128 c-10 -9 -11 -8 -5 6 3 10 9 15 12 12 3 -3
0 -11 -7 -18z m-20 -40 c-10 -9 -11 -8 -5 6 3 10 9 15 12 12 3 -3 0 -11 -7
-18z m-38 -72 c-3 -9 -8 -14 -10 -11 -3 3 -2 9 2 15 9 16 15 13 8 -4z m-30
-70 c-3 -9 -8 -14 -10 -11 -3 3 -2 9 2 15 9 16 15 13 8 -4z m-20 -40 c-3 -9
-8 -14 -10 -11 -3 3 -2 9 2 15 9 16 15 13 8 -4z m-22 -48 c-10 -9 -11 -8 -5 6
3 10 9 15 12 12 3 -3 0 -11 -7 -18z m-1 -21 c0 -2 -8 -10 -17 -17 -16 -13 -17
-12 -4 4 13 16 21 21 21 13z m-26 -61 c-4 -8 -8 -15 -10 -15 -2 0 -4 7 -4 15
0 8 4 15 10 15 5 0 7 -7 4 -15z m-23 -52 c-12 -20 -14 -14 -5 12 4 9 9 14 11
11 3 -2 0 -13 -6 -23z m-34 -103 c-2 -11 -6 -22 -9 -26 -4 -3 -5 2 -3 13 2 10
4 21 4 26 1 4 3 7 6 7 3 0 4 -9 2 -20z m-20 -62 c-3 -8 -6 -5 -6 6 -1 11 2 17
5 13 3 -3 4 -12 1 -19z m-16 -62 c-14 -36 -22 -33 -9 5 6 16 12 28 14 26 3 -2
0 -16 -5 -31z m-20 -59 c-10 -9 -11 -8 -5 6 3 10 9 15 12 12 3 -3 0 -11 -7
-18z m-10 -40 c-10 -9 -11 -8 -5 6 3 10 9 15 12 12 3 -3 0 -11 -7 -18z m-11
-54 c-11 -17 -11 -17 -6 0 3 10 6 24 7 30 0 9 2 9 5 0 3 -7 0 -20 -6 -30z
m-18 -95 c-8 -8 -9 -4 -5 13 4 13 8 18 11 10 2 -7 -1 -18 -6 -23z m-8 -87 c-4
-23 -9 -40 -11 -37 -3 3 -2 23 2 46 4 23 9 39 11 37 3 -2 2 -23 -2 -46z m-17
-123 c-2 -13 -4 -5 -4 17 -1 22 1 32 4 23 2 -10 2 -28 0 -40z m-5 -250 c-2
-123 1 -255 6 -295 4 -39 5 -70 1 -67 -22 13 -32 584 -10 584 3 0 5 -100 3
-222z"/>
</g>
</svg>
